HIERARCHY
ROOT Pelvis
{
	OFFSET 0.000000 0.000000 0.000000
	CHANNELS 6 Xposition Yposition Zposition Zrotation Yrotation Xrotation 
	JOINT Left_hip
	{
		OFFSET 0.070241 -0.085575 -0.010474
		CHANNELS 3 Zrotation Yrotation Xrotation
		JOINT Left_knee
		{
			OFFSET 0.032125 -0.356873 -0.000555
			CHANNELS 3 Zrotation Yrotation Xrotation
			JOINT Left_ankle
			{
				OFFSET -0.010961 -0.370212 -0.042278
				CHANNELS 3 Zrotation Yrotation Xrotation
				JOINT Left_foot
				{
					OFFSET 0.023322 -0.052281 0.110104
					CHANNELS 3 Zrotation Yrotation Xrotation
					End Site
					{
						OFFSET 0.000000 0.000000 0.000000
					}
				}
			}
		}
	}
	JOINT Right_hip
	{
		OFFSET -0.068518 -0.084320 -0.007402
		CHANNELS 3 Zrotation Yrotation Xrotation
		JOINT Right_knee
		{
			OFFSET -0.037345 -0.364815 -0.003619
			CHANNELS 3 Zrotation Yrotation Xrotation
			JOINT Right_ankle
			{
				OFFSET 0.013394 -0.370006 -0.039954
				CHANNELS 3 Zrotation Yrotation Xrotation
				JOINT Right_foot
				{
					OFFSET -0.019600 -0.045455 0.113223
					CHANNELS 3 Zrotation Yrotation Xrotation
					End Site
					{
						OFFSET 0.000000 0.000000 0.000000
					}
				}
			}
		}
	}
	JOINT Spine1
	{
		OFFSET -0.002404 0.098129 -0.018169
		CHANNELS 3 Zrotation Yrotation Xrotation
		JOINT Spine2
		{
			OFFSET 0.003989 0.127209 -0.001742
			CHANNELS 3 Zrotation Yrotation Xrotation
			JOINT Spine3
			{
				OFFSET 0.001758 0.046641 0.023475
				CHANNELS 3 Zrotation Yrotation Xrotation
				JOINT Neck
				{
					OFFSET -0.003759 0.194901 -0.039982
					CHANNELS 3 Zrotation Yrotation Xrotation
					JOINT Head
					{
						OFFSET 0.003999 0.063756 0.047665
						CHANNELS 3 Zrotation Yrotation Xrotation
						End Site
						{
							OFFSET 0.000000 0.000000 0.000000
						}
					}
				}
				JOINT Left_collar
				{
					OFFSET 0.071816 0.109048 -0.028973
					CHANNELS 3 Zrotation Yrotation Xrotation
					JOINT Left_shoulder
					{
						OFFSET 0.084027 0.032269 -0.006525
						CHANNELS 3 Zrotation Yrotation Xrotation
						JOINT Left_elbow
						{
							OFFSET 0.243854 -0.013992 -0.025905
							CHANNELS 3 Zrotation Yrotation Xrotation
							JOINT Left_wrist
							{
								OFFSET 0.232156 0.008196 -0.000339
								CHANNELS 3 Zrotation Yrotation Xrotation
								JOINT Left_palm
								{
									OFFSET 0.075377 -0.009461 -0.012494
									CHANNELS 3 Zrotation Yrotation Xrotation
									End Site
									{
										OFFSET 0.000000 0.000000 0.000000
									}
								}
							}
						}
					}
				}
				JOINT Right_collar
				{
					OFFSET -0.073768 0.107001 -0.033755
					CHANNELS 3 Zrotation Yrotation Xrotation
					JOINT Right_shoulder
					{
						OFFSET -0.086837 0.032868 -0.009431
						CHANNELS 3 Zrotation Yrotation Xrotation
						JOINT Right_elbow
						{
							OFFSET -0.236446 -0.012544 -0.018747
							CHANNELS 3 Zrotation Yrotation Xrotation
							JOINT Right_wrist
							{
								OFFSET -0.236110 0.006124 -0.004327
								CHANNELS 3 Zrotation Yrotation Xrotation
								JOINT Right_palm
								{
									OFFSET -0.074800 -0.006875 -0.009610
									CHANNELS 3 Zrotation Yrotation Xrotation
									End Site
									{
										OFFSET 0.000000 0.000000 0.000000
									}
								}
							}
						}
					}
				}
			}
		}
	}
}
MOTION
Frames: 14
Frame Time: 0.100000
0.000000 0.000000 0.000000 177.438347 18.295306 -10.376656 2.015522 6.011416 2.957484 1.530757 -7.163895 -5.190225 -2.950847 25.446016 -0.418022 9.160226 -4.373730 -2.072697 0.492962 -5.397927 -0.661278 -0.408275 6.690970 -0.227203 -0.533439 -21.402724 -2.888512 4.737155 6.496112 5.477352 -0.442530 2.322607 -2.313009 0.457151 -1.778739 -2.515852 -1.004155 2.440101 -1.979701 -2.075046 -2.311536 3.950806 2.264526 0.387805 4.700602 -5.674534 6.367504 -9.953635 2.499113 -16.887587 -14.097393 3.477109 9.932081 -5.834171 0.906226 -0.926631 33.410402 -0.251840 -7.119173 -1.743008 9.080854 -2.014492 -6.796531 -2.691801 13.037380 -20.224727 -10.986041 -13.248570 -10.487931 -6.200838 0.253041 33.975714 7.505594 8.580927 -3.650684 
0.000590 -0.000311 0.002852 177.089992 18.227032 -10.493861 2.404076 5.983693 3.018968 1.560270 -7.095409 -4.991084 -2.813340 25.395479 -0.757367 9.044410 -4.026774 -1.646768 0.847907 -5.343024 -0.455162 -0.289743 6.514310 -0.291786 -1.151893 -21.173939 -2.760361 5.916573 5.938408 5.804716 -0.997920 2.252042 -2.859217 1.014755 -1.925630 -2.466768 -0.764006 2.234657 -2.310860 -1.195336 -2.454999 4.452876 2.332246 0.015352 5.399723 -5.821017 6.388000 -10.023148 3.252153 -17.072267 -14.124755 3.200351 9.909151 -6.070917 1.173528 -0.821749 33.274174 -0.190792 -6.959140 -1.422999 9.770681 -1.789973 -7.221458 -3.434459 13.837279 -19.989372 -10.883134 -13.035735 -10.254136 -6.612414 0.162559 34.183451 7.473002 8.337866 -3.283391 
-0.000244 -0.000447 0.004897 176.819586 18.152934 -10.458377 2.615793 5.936288 3.071842 1.619834 -6.964599 -5.014880 -2.804614 25.256793 -1.165651 9.240715 -3.721335 -1.114533 1.122102 -5.068629 -0.250344 -0.357902 6.330310 -0.631858 -1.845142 -20.937617 -2.528738 7.133902 5.255366 6.180321 -1.247359 2.106509 -3.237584 1.681867 -2.048251 -2.510771 -0.460457 2.031336 -2.697314 -0.545224 -2.476662 4.943704 1.919377 0.086075 5.853795 -6.235824 6.672111 -10.032500 3.138303 -17.038921 -13.632510 2.950628 9.970432 -6.296561 1.162354 -0.900561 32.522773 -0.155480 -6.782555 -0.840165 10.499797 -1.728029 -7.719611 -4.401398 14.767941 -19.643534 -10.760533 -12.202978 -10.023831 -6.854428 0.346829 34.312961 7.449772 8.036113 -2.874434 
-0.002284 -0.000644 0.006259 176.756995 18.267421 -10.474954 2.569435 5.871641 3.130604 1.591827 -6.856232 -4.898317 -2.699410 25.025304 -1.446654 9.237021 -3.429174 -0.794908 1.075124 -5.049870 -0.079842 -0.388804 6.043788 -0.689495 -2.200406 -20.706732 -2.499437 7.837757 4.764751 6.418155 -1.245880 1.983326 -3.422972 2.132420 -2.186924 -2.563214 -0.273870 1.869598 -2.870252 -0.462109 -2.415110 5.412465 1.329194 0.367464 6.311310 -6.457775 6.794693 -9.981914 2.545922 -17.045126 -13.236616 2.770499 10.288501 -6.501575 0.747702 -0.656836 31.880422 -0.156527 -6.703632 -0.522329 10.964811 -1.660290 -8.036623 -4.837530 15.525848 -19.345887 -10.839714 -11.338850 -9.723315 -6.741140 0.287120 34.687760 7.515071 7.879676 -2.853027 
-0.004692 -0.000678 0.007285 176.797882 18.693795 -10.653123 2.425295 5.830183 3.475534 1.532605 -7.111844 -5.024871 -2.748385 24.877798 -1.572164 9.287986 -3.398697 -0.784524 0.846250 -5.139917 0.249639 -0.453716 5.868988 -0.616680 -2.282185 -20.799032 -2.645058 8.017975 4.725784 6.549546 -1.080662 1.953357 -3.493508 2.179690 -2.280777 -2.353575 -0.287869 1.814826 -2.836560 -0.769867 -2.264793 5.821205 0.985382 0.644166 6.637193 -6.583005 6.537744 -9.890216 2.349611 -17.320049 -13.257872 2.700372 10.133821 -6.707380 0.728862 -0.787905 31.661133 -0.342375 -6.745800 -0.489527 11.072803 -1.598496 -7.994565 -4.693232 15.399892 -19.079382 -10.785271 -10.923902 -9.512153 -6.626201 0.400764 34.838298 7.663741 7.976843 -2.920618 
-0.006502 -0.000641 0.007409 176.940278 19.164464 -11.085545 2.202406 5.736642 3.689079 1.369393 -7.441013 -4.425462 -2.820810 24.884284 -1.735441 9.354518 -3.473332 -1.277857 0.522915 -5.319355 0.683430 -0.538721 5.785360 -0.230522 -1.874126 -21.085613 -2.965803 7.187815 5.131586 6.365018 -0.921258 2.049010 -3.231823 1.915387 -2.299355 -2.184752 -0.391435 1.903283 -2.358364 -1.204638 -2.012248 6.110028 1.197883 1.052960 6.348022 -6.657511 6.355085 -9.751800 1.678628 -17.737333 -13.438420 3.694447 8.533487 -7.195155 1.865792 -1.423509 30.762174 -1.098353 -6.835876 -0.674698 10.827828 -1.780543 -7.785793 -3.161605 14.813898 -18.909877 -11.430493 -10.148040 -10.358392 -7.225190 0.751637 33.385622 8.211870 8.187572 -2.849694 
-0.006064 0.000434 0.004785 177.205294 19.595201 -11.923945 1.895938 5.492412 3.662135 1.130257 -6.955842 -2.818434 -2.461908 23.939379 -1.581618 8.404345 -2.927178 -3.027698 0.052480 -5.160468 0.601593 -0.531958 4.707131 1.713839 -1.680113 -20.542310 -3.573825 6.933447 5.731699 5.958821 -0.765397 1.885767 -2.069724 1.290446 -1.789609 -1.998035 -0.928480 1.879188 -0.891921 -0.317704 -1.087168 4.269915 0.866377 1.180901 5.338006 -8.469571 8.121610 -9.096851 -7.321001 -17.866753 -9.146440 10.451520 -3.133831 -12.059238 20.957555 -8.604475 17.740235 -2.418594 -5.034638 3.067137 11.724627 -3.734103 -6.427245 8.372441 13.621174 -12.700681 -14.258329 -0.851576 -11.990436 -22.732951 7.101055 20.844385 8.837827 6.955209 1.421079 
-0.003188 0.004244 -0.000670 176.985386 18.862280 -11.532237 2.579887 7.120645 2.783924 1.206890 -5.539738 -2.302058 -1.969259 17.790496 -0.576381 3.639288 0.809282 -8.615609 0.278112 -5.911023 -1.175248 -0.695379 4.911259 3.511068 2.188273 -16.648064 -5.251572 3.606827 7.357203 8.966100 -0.371017 2.579625 -2.946060 1.067738 -0.577165 3.228133 -1.453341 2.817479 -4.225723 0.851261 -1.151323 0.063495 0.693461 2.525029 5.323591 -18.524537 9.202827 -8.341587 -24.993705 -8.733794 5.501737 22.252447 -42.734859 -11.737191 43.732164 -9.916566 15.888076 -17.281271 -15.203057 -11.515118 20.933678 -4.154013 -1.361132 22.043109 7.310591 -4.280674 -16.415942 18.217231 -14.495363 -37.764187 9.671313 10.346365 20.128395 14.425117 -6.296372 
-0.000082 0.005150 -0.001849 176.977680 20.123858 -11.515511 2.790549 6.810144 3.608324 1.188524 -4.398719 -4.325114 -1.022450 15.437235 0.220837 3.050091 2.961646 -8.310159 0.201412 -5.449654 -0.472968 -0.759822 2.457060 1.956480 -0.159076 -14.512135 -4.318823 6.611930 5.411895 9.757508 -0.761278 3.176863 -3.506278 0.983972 -0.760867 7.746726 -2.007882 2.675700 -7.878557 1.863030 -1.225557 -4.088074 0.627744 3.598862 7.898724 -28.275108 0.469492 -2.441239 -41.191389 -5.426910 20.397078 4.450887 -42.975799 4.293569 33.863299 -6.123916 9.841904 -19.702704 -15.669484 -12.512207 29.598546 3.682223 4.373886 36.906441 5.318603 10.852937 -3.073772 20.656278 -1.481763 -28.124327 5.772240 6.084116 22.017819 15.197757 -6.590980 
0.003608 0.004810 -0.006227 176.229449 23.209385 -12.103456 3.161957 6.212311 3.579637 1.256607 -3.984702 -5.078930 -1.102626 12.478348 1.952116 3.416180 5.705063 -11.250764 0.435568 -5.706575 0.499225 -1.156717 0.326361 0.673047 0.618612 -13.461004 -3.238230 4.121087 4.219912 6.945788 -1.420092 3.077154 -2.518172 1.167531 -2.643316 9.552725 -1.374098 2.587277 -9.763633 0.458706 -0.422899 -7.961277 1.552591 3.574776 8.657265 -28.284011 -15.718505 3.288443 -49.804508 -11.480498 32.543261 -22.265557 -54.886879 45.401144 31.273403 -8.895717 14.840707 -21.702012 -17.155227 -14.293022 31.249823 17.454057 9.504793 48.188193 8.861043 24.166150 9.321487 33.607017 27.075675 -24.533515 8.652709 12.184912 23.306306 17.133943 -8.095558 
0.005320 0.003679 -0.011368 175.913662 23.640350 -10.469057 3.121611 5.229144 1.359047 1.377749 -1.155245 -5.513157 -1.623244 9.892994 3.679853 4.043226 8.234995 -14.109278 0.831243 -5.488131 -0.978435 -1.367448 -1.461422 -0.790882 3.876472 -12.665544 -2.697558 -1.749621 5.034285 5.625323 -1.468799 3.462818 -2.426809 1.499759 -3.555438 4.844533 -0.417553 2.859307 -9.000356 -1.559726 1.548855 -7.955464 2.519618 3.242620 11.539198 -19.046478 -22.369732 -1.300701 -51.278434 -24.159881 35.938340 -89.936729 -74.983210 117.509973 27.805992 -8.699840 8.078429 -24.164411 -17.826221 -13.667045 24.284397 22.269817 6.204576 51.198083 11.489243 29.818511 33.906514 63.898700 57.862011 -22.655199 9.431179 7.296324 24.501079 18.806051 -8.890069 
0.005527 0.001924 -0.013343 176.069925 23.293798 -10.000147 2.949663 4.644942 1.019256 1.546967 0.133264 -5.635578 -1.611049 9.280684 4.161473 4.024330 9.030480 -15.083524 0.789381 -5.125353 -1.164517 -1.386464 -1.784988 -1.485616 5.445195 -12.634662 -2.512655 -4.015116 6.287480 5.225992 -1.642663 4.071503 -2.571123 2.036140 -3.626689 2.526313 0.285767 3.225900 -7.813247 -2.778789 3.650879 -7.548509 3.123620 2.076196 12.229668 -11.497439 -23.485635 -5.689089 -45.489195 -32.893431 32.079327 -152.677642 -70.690278 176.509280 30.115538 -7.755844 -2.124903 -25.481370 -17.268744 -12.535609 19.770046 23.596792 3.456123 49.865141 12.975420 29.367317 83.199809 78.345620 105.109063 -26.692132 9.093351 -1.990544 25.231784 18.269875 -8.220674 
0.004178 0.002556 -0.012205 176.074603 22.851175 -9.736658 2.918461 4.646898 0.811534 1.558327 0.939491 -5.371520 -1.610511 9.070431 4.227289 3.902938 8.948362 -16.002853 0.842377 -4.870742 -1.561736 -1.501859 -2.144072 -0.973783 6.617872 -12.413449 -2.967441 -6.009629 6.900835 5.328175 -1.326466 3.675499 -2.733182 2.349337 -3.547778 0.910176 0.507880 2.785376 -7.142403 -2.114416 5.309285 -7.417228 2.388280 2.529611 12.323504 -10.960589 -18.852080 -6.207480 -43.992529 -29.594506 28.942145 -164.282576 -63.856117 -169.211556 29.887343 -10.548612 -1.215900 -25.656306 -16.939714 -12.106989 19.668985 20.189671 2.605295 51.148035 10.402485 28.775373 115.624318 80.522589 138.762334 -25.213858 10.462797 -4.916379 24.697144 17.405638 -7.149995 
0.001447 0.002928 -0.008446 176.367765 22.454677 -9.973782 2.731137 4.835516 1.780126 1.443523 0.650417 -5.595405 -1.553485 9.733055 3.589490 4.483093 8.127942 -14.998421 0.517785 -4.603846 -0.825047 -1.506648 -2.164264 -0.905012 5.903357 -11.991464 -3.475163 -4.650929 6.191202 5.948106 -0.728530 3.146586 -3.294592 1.852051 -2.991647 2.089855 -0.084572 2.232248 -7.065298 0.045186 5.685341 -7.814577 1.203366 4.046977 10.457881 -15.965136 -12.004068 -4.550328 -44.432978 -19.066606 28.879547 -161.115192 -63.855559 -170.004009 32.313356 -12.821051 2.951564 -25.918086 -17.333500 -13.553818 21.670026 15.112932 3.119153 50.897582 5.150086 28.816703 121.438867 80.032944 141.399014 -24.548336 10.137264 -13.254551 24.525036 16.192074 -6.047487 
